# Blender v2.91.0 OBJ File: ''
# www.blender.org
mtllib cubetex.mtl
o Cube
v 1.000000 1.000000 -1.000000
v 1.000000 -1.000000 -1.000000
v 1.000000 1.000000 1.000000
v 1.000000 -1.000000 1.000000
v -1.000000 1.000000 -1.000000
v -1.000000 -1.000000 -1.000000
v -1.000000 1.000000 1.000000
v -1.000000 -1.000000 1.000000
vt 0.001248 0.688550
vt 0.311302 0.688636
vt 0.311388 0.998605
vt 0.001821 0.998031
vt 0.322055 0.369156
vt 0.631190 0.369156
vt 0.631190 0.678291
vt 0.322055 0.678291
vt 0.642682 0.690111
vt 0.951043 0.690111
vt 0.951043 0.998471
vt 0.642682 0.998471
vt 0.643468 0.369597
vt 0.952219 0.369597
vt 0.952219 0.678348
vt 0.643468 0.678348
vt 0.322708 0.690095
vt 0.631152 0.690095
vt 0.631152 0.997924
vt 0.322708 0.997924
vt 0.001621 0.369584
vt 0.310092 0.369584
vt 0.310092 0.678054
vt 0.001621 0.678054
vn 0.0000 1.0000 0.0000
vn 0.0000 0.0000 1.0000
vn -1.0000 0.0000 0.0000
vn 0.0000 -1.0000 0.0000
vn 1.0000 0.0000 0.0000
vn 0.0000 0.0000 -1.0000
usemtl Material
s off
f 1/1/1 5/2/1 7/3/1 3/4/1
f 4/5/2 3/6/2 7/7/2 8/8/2
f 8/9/3 7/10/3 5/11/3 6/12/3
f 6/13/4 2/14/4 4/15/4 8/16/4
f 2/17/5 1/18/5 3/19/5 4/20/5
f 6/21/6 5/22/6 1/23/6 2/24/6
