# Blender v2.91.0 OBJ File: ''
# www.blender.org
mtllib cube.mtl
o Roundcube
v -0.957735 0.957735 -0.957735
v -0.967700 0.928868 -0.967700
v -0.970711 0.900000 -0.970711
v -0.970711 -0.900000 -0.970711
v -0.967700 -0.928868 -0.967700
v -0.967700 0.967700 -0.928868
v -0.987797 0.933850 -0.933850
v -0.993541 0.900000 -0.935355
v -0.993541 -0.900000 -0.935355
v -0.987797 -0.933850 -0.933850
v -0.970711 0.970711 -0.900000
v -0.970711 0.970711 0.900000
v -0.993541 0.935355 -0.900000
v -0.993541 0.935355 0.900000
v -1.000000 0.900000 0.900000
v -1.000000 0.900000 -0.900000
v -1.000000 -0.900000 -0.900000
v -1.000000 -0.900000 0.900000
v -0.993541 -0.935355 -0.900000
v -0.993541 -0.935355 0.900000
v -0.967700 0.967700 0.928868
v -0.987797 0.933850 0.933850
v -0.993541 0.900000 0.935355
v -0.993541 -0.900000 0.935355
v -0.987797 -0.933850 0.933850
v -0.957735 -0.957735 -0.957735
v -0.928868 -0.967700 -0.967700
v -0.900000 -0.970711 -0.970711
v 0.900000 -0.970711 -0.970711
v 0.928868 -0.967700 -0.967700
v -0.967700 -0.967700 -0.928868
v -0.933850 -0.987797 -0.933850
v -0.900000 -0.993541 -0.935355
v 0.900000 -0.993541 -0.935355
v 0.933850 -0.987797 -0.933850
v -0.970711 -0.970711 -0.900000
v -0.970711 -0.970711 0.900000
v -0.935355 -0.993541 -0.900000
v -0.935355 -0.993541 0.900000
v -0.900000 -1.000000 0.900000
v -0.900000 -1.000000 -0.900000
v 0.900000 -1.000000 -0.900000
v 0.900000 -1.000000 0.900000
v 0.935355 -0.993541 -0.900000
v 0.935355 -0.993541 0.900000
v -0.967700 -0.967700 0.928868
v -0.933850 -0.987797 0.933850
v -0.900000 -0.993541 0.935355
v 0.900000 -0.993541 0.935355
v 0.933850 -0.987797 0.933850
v 0.957735 -0.957735 -0.957735
v 0.967700 -0.928868 -0.967700
v 0.970711 -0.900000 -0.970711
v 0.970711 0.900000 -0.970711
v 0.967700 0.928868 -0.967700
v 0.967700 -0.967700 -0.928868
v 0.987797 -0.933850 -0.933850
v 0.993541 -0.900000 -0.935355
v 0.993541 0.900000 -0.935355
v 0.987797 0.933850 -0.933850
v 0.970711 -0.970711 -0.900000
v 0.970711 -0.970711 0.900000
v 0.993541 -0.935355 -0.900000
v 0.993541 -0.935355 0.900000
v 1.000000 -0.900000 0.900000
v 1.000000 -0.900000 -0.900000
v 1.000000 0.900000 -0.900000
v 1.000000 0.900000 0.900000
v 0.993541 0.935355 -0.900000
v 0.993541 0.935355 0.900000
v 0.967700 -0.967700 0.928868
v 0.987797 -0.933850 0.933850
v 0.993541 -0.900000 0.935355
v 0.993541 0.900000 0.935355
v 0.987797 0.933850 0.933850
v 0.957735 0.957735 -0.957735
v 0.928868 0.967700 -0.967700
v 0.900000 0.970711 -0.970711
v -0.900000 0.970711 -0.970711
v -0.928868 0.967700 -0.967700
v 0.967700 0.967700 -0.928868
v 0.933850 0.987797 -0.933850
v 0.900000 0.993541 -0.935355
v -0.900000 0.993541 -0.935355
v -0.933850 0.987797 -0.933850
v 0.970711 0.970711 -0.900000
v 0.970711 0.970711 0.900000
v 0.935355 0.993541 -0.900000
v 0.935355 0.993541 0.900000
v 0.900000 1.000000 0.900000
v 0.900000 1.000000 -0.900000
v -0.900000 1.000000 -0.900000
v -0.900000 1.000000 0.900000
v -0.935355 0.993541 -0.900000
v -0.935355 0.993541 0.900000
v 0.967700 0.967700 0.928868
v 0.933850 0.987797 0.933850
v 0.900000 0.993541 0.935355
v -0.900000 0.993541 0.935355
v -0.933850 0.987797 0.933850
v 0.933850 0.933850 -0.987797
v 0.935355 0.900000 -0.993541
v 0.935355 -0.900000 -0.993541
v 0.933850 -0.933850 -0.987797
v 0.900000 0.935355 -0.993541
v -0.900000 0.935355 -0.993541
v -0.900000 0.900000 -1.000000
v 0.900000 0.900000 -1.000000
v 0.900000 -0.900000 -1.000000
v -0.900000 -0.900000 -1.000000
v 0.900000 -0.935355 -0.993541
v -0.900000 -0.935355 -0.993541
v -0.933850 0.933850 -0.987797
v -0.935355 0.900000 -0.993541
v -0.935355 -0.900000 -0.993541
v -0.933850 -0.933850 -0.987797
v -0.957735 0.957735 0.957735
v -0.967700 0.928868 0.967700
v -0.970711 0.900000 0.970711
v -0.970711 -0.900000 0.970711
v -0.967700 -0.928868 0.967700
v -0.957735 -0.957735 0.957735
v -0.928868 0.967700 0.967700
v -0.933850 0.933850 0.987797
v -0.935355 0.900000 0.993541
v -0.935355 -0.900000 0.993541
v -0.933850 -0.933850 0.987797
v -0.928868 -0.967700 0.967700
v -0.900000 0.970711 0.970711
v 0.900000 0.970711 0.970711
v -0.900000 0.935355 0.993541
v 0.900000 0.935355 0.993541
v 0.900000 0.900000 1.000000
v -0.900000 0.900000 1.000000
v -0.900000 -0.900000 1.000000
v 0.900000 -0.900000 1.000000
v -0.900000 -0.935355 0.993541
v 0.900000 -0.935355 0.993541
v -0.900000 -0.970711 0.970711
v 0.900000 -0.970711 0.970711
v 0.928868 0.967700 0.967700
v 0.933850 0.933850 0.987797
v 0.935355 0.900000 0.993541
v 0.935355 -0.900000 0.993541
v 0.933850 -0.933850 0.987797
v 0.928868 -0.967700 0.967700
v 0.957735 0.957735 0.957735
v 0.967700 0.928868 0.967700
v 0.970711 0.900000 0.970711
v 0.970711 -0.900000 0.970711
v 0.967700 -0.928868 0.967700
v 0.957735 -0.957735 0.957735
vn -0.7470 0.4701 -0.4701
vn -0.8346 0.1546 -0.5288
vn -0.8401 0.0000 -0.5425
vn -0.8346 -0.1546 -0.5288
vn -0.7470 -0.4701 -0.4701
vn -0.8346 0.5288 -0.1546
vn -0.9690 0.1747 -0.1747
vn -0.9837 0.0000 -0.1797
vn -0.9690 -0.1747 -0.1747
vn -0.8346 -0.5288 -0.1546
vn -0.8401 0.5425 0.0000
vn -0.9837 0.1797 0.0000
vn -1.0000 0.0000 0.0000
vn -0.9837 -0.1797 0.0000
vn -0.8401 -0.5425 0.0000
vn -0.8346 0.5288 0.1546
vn -0.9690 0.1747 0.1747
vn -0.9837 0.0000 0.1797
vn -0.9690 -0.1747 0.1747
vn -0.8346 -0.5288 0.1546
vn -0.7470 0.4701 0.4701
vn -0.8346 0.1546 0.5288
vn -0.8401 0.0000 0.5425
vn -0.8346 -0.1546 0.5288
vn -0.7470 -0.4701 0.4701
vn -0.4701 -0.7470 -0.4701
vn -0.1546 -0.8346 -0.5288
vn 0.0000 -0.8401 -0.5425
vn 0.1546 -0.8346 -0.5288
vn 0.4701 -0.7470 -0.4701
vn -0.5288 -0.8346 -0.1546
vn -0.1747 -0.9690 -0.1747
vn 0.0000 -0.9837 -0.1797
vn 0.1747 -0.9690 -0.1747
vn 0.5288 -0.8346 -0.1546
vn -0.5425 -0.8401 0.0000
vn -0.1797 -0.9837 0.0000
vn 0.0000 -1.0000 0.0000
vn 0.1797 -0.9837 0.0000
vn 0.5425 -0.8401 0.0000
vn -0.5288 -0.8346 0.1546
vn -0.1747 -0.9690 0.1747
vn 0.0000 -0.9837 0.1797
vn 0.1747 -0.9690 0.1747
vn 0.5288 -0.8346 0.1546
vn -0.4701 -0.7470 0.4701
vn -0.1546 -0.8346 0.5288
vn 0.0000 -0.8401 0.5425
vn 0.1546 -0.8346 0.5288
vn 0.4701 -0.7470 0.4701
vn 0.7470 -0.4701 -0.4701
vn 0.8346 -0.1546 -0.5288
vn 0.8401 0.0000 -0.5425
vn 0.8346 0.1546 -0.5288
vn 0.7470 0.4701 -0.4701
vn 0.8346 -0.5288 -0.1546
vn 0.9690 -0.1747 -0.1747
vn 0.9837 0.0000 -0.1797
vn 0.9690 0.1747 -0.1747
vn 0.8346 0.5288 -0.1546
vn 0.8401 -0.5425 0.0000
vn 0.9837 -0.1797 0.0000
vn 1.0000 0.0000 0.0000
vn 0.9837 0.1797 0.0000
vn 0.8401 0.5425 0.0000
vn 0.8346 -0.5288 0.1546
vn 0.9690 -0.1747 0.1747
vn 0.9837 0.0000 0.1797
vn 0.9690 0.1747 0.1747
vn 0.8346 0.5288 0.1546
vn 0.7470 -0.4701 0.4701
vn 0.8346 -0.1546 0.5288
vn 0.8401 0.0000 0.5425
vn 0.8346 0.1546 0.5288
vn 0.7470 0.4701 0.4701
vn 0.4701 0.7470 -0.4701
vn 0.1546 0.8346 -0.5288
vn 0.0000 0.8401 -0.5425
vn -0.1546 0.8346 -0.5288
vn -0.4701 0.7470 -0.4701
vn 0.5288 0.8346 -0.1546
vn 0.1747 0.9690 -0.1747
vn 0.0000 0.9837 -0.1797
vn -0.1747 0.9690 -0.1747
vn -0.5288 0.8346 -0.1546
vn 0.5425 0.8401 0.0000
vn 0.1797 0.9837 0.0000
vn 0.0000 1.0000 0.0000
vn -0.1797 0.9837 0.0000
vn -0.5425 0.8401 0.0000
vn 0.5288 0.8346 0.1546
vn 0.1747 0.9690 0.1747
vn 0.0000 0.9837 0.1797
vn -0.1747 0.9690 0.1747
vn -0.5288 0.8346 0.1546
vn 0.4701 0.7470 0.4701
vn 0.1546 0.8346 0.5288
vn 0.0000 0.8401 0.5425
vn -0.1546 0.8346 0.5288
vn -0.4701 0.7470 0.4701
vn 0.4701 0.4701 -0.7470
vn 0.5288 0.1546 -0.8346
vn 0.5425 0.0000 -0.8401
vn 0.5288 -0.1546 -0.8346
vn 0.4701 -0.4701 -0.7470
vn 0.1546 0.5288 -0.8346
vn 0.1747 0.1747 -0.9690
vn 0.1797 0.0000 -0.9837
vn 0.1747 -0.1747 -0.9690
vn 0.1546 -0.5288 -0.8346
vn 0.0000 0.5425 -0.8401
vn 0.0000 0.1797 -0.9837
vn 0.0000 0.0000 -1.0000
vn 0.0000 -0.1797 -0.9837
vn 0.0000 -0.5425 -0.8401
vn -0.1546 0.5288 -0.8346
vn -0.1747 0.1747 -0.9690
vn -0.1797 0.0000 -0.9837
vn -0.1747 -0.1747 -0.9690
vn -0.1546 -0.5288 -0.8346
vn -0.4701 0.4701 -0.7470
vn -0.5288 0.1546 -0.8346
vn -0.5425 0.0000 -0.8401
vn -0.5288 -0.1546 -0.8346
vn -0.4701 -0.4701 -0.7470
vn -0.4701 0.4701 0.7470
vn -0.5288 0.1546 0.8346
vn -0.5425 0.0000 0.8401
vn -0.5288 -0.1546 0.8346
vn -0.4701 -0.4701 0.7470
vn -0.1546 0.5288 0.8346
vn -0.1747 0.1747 0.9690
vn -0.1797 0.0000 0.9837
vn -0.1747 -0.1747 0.9690
vn -0.1546 -0.5288 0.8346
vn 0.0000 0.5425 0.8401
vn 0.0000 0.1797 0.9837
vn 0.0000 0.0000 1.0000
vn 0.0000 -0.1797 0.9837
vn 0.0000 -0.5425 0.8401
vn 0.1546 0.5288 0.8346
vn 0.1747 0.1747 0.9690
vn 0.1797 0.0000 0.9837
vn 0.1747 -0.1747 0.9690
vn 0.1546 -0.5288 0.8346
vn 0.4701 0.4701 0.7470
vn 0.5288 0.1546 0.8346
vn 0.5425 0.0000 0.8401
vn 0.5288 -0.1546 0.8346
vn 0.4701 -0.4701 0.7470
usemtl None
s off
f 1//1 2//1 7//1 6//1
f 2//2 3//2 8//2 7//2
f 3//3 4//3 9//3 8//3
f 4//4 5//4 10//4 9//4
f 5//5 26//5 31//5 10//5
f 6//6 7//6 13//6 11//6
f 7//7 8//7 16//7 13//7
f 8//8 9//8 17//8 16//8
f 9//9 10//9 19//9 17//9
f 10//10 31//10 36//10 19//10
f 11//11 13//11 14//11 12//11
f 13//12 16//12 15//12 14//12
f 16//13 17//13 18//13 15//13
f 17//14 19//14 20//14 18//14
f 19//15 36//15 37//15 20//15
f 12//16 14//16 22//16 21//16
f 14//17 15//17 23//17 22//17
f 15//18 18//18 24//18 23//18
f 18//19 20//19 25//19 24//19
f 20//20 37//20 46//20 25//20
f 21//21 22//21 118//21 117//21
f 22//22 23//22 119//22 118//22
f 23//23 24//23 120//23 119//23
f 24//24 25//24 121//24 120//24
f 25//25 46//25 122//25 121//25
f 26//26 27//26 32//26 31//26
f 27//27 28//27 33//27 32//27
f 28//28 29//28 34//28 33//28
f 29//29 30//29 35//29 34//29
f 30//30 51//30 56//30 35//30
f 31//31 32//31 38//31 36//31
f 32//32 33//32 41//32 38//32
f 33//33 34//33 42//33 41//33
f 34//34 35//34 44//34 42//34
f 35//35 56//35 61//35 44//35
f 36//36 38//36 39//36 37//36
f 38//37 41//37 40//37 39//37
f 41//38 42//38 43//38 40//38
f 42//39 44//39 45//39 43//39
f 44//40 61//40 62//40 45//40
f 37//41 39//41 47//41 46//41
f 39//42 40//42 48//42 47//42
f 40//43 43//43 49//43 48//43
f 43//44 45//44 50//44 49//44
f 45//45 62//45 71//45 50//45
f 46//46 47//46 128//46 122//46
f 47//47 48//47 139//47 128//47
f 48//48 49//48 140//48 139//48
f 49//49 50//49 146//49 140//49
f 50//50 71//50 152//50 146//50
f 51//51 52//51 57//51 56//51
f 52//52 53//52 58//52 57//52
f 53//53 54//53 59//53 58//53
f 54//54 55//54 60//54 59//54
f 55//55 76//55 81//55 60//55
f 56//56 57//56 63//56 61//56
f 57//57 58//57 66//57 63//57
f 58//58 59//58 67//58 66//58
f 59//59 60//59 69//59 67//59
f 60//60 81//60 86//60 69//60
f 61//61 63//61 64//61 62//61
f 63//62 66//62 65//62 64//62
f 66//63 67//63 68//63 65//63
f 67//64 69//64 70//64 68//64
f 69//65 86//65 87//65 70//65
f 62//66 64//66 72//66 71//66
f 64//67 65//67 73//67 72//67
f 65//68 68//68 74//68 73//68
f 68//69 70//69 75//69 74//69
f 70//70 87//70 96//70 75//70
f 71//71 72//71 151//71 152//71
f 72//72 73//72 150//72 151//72
f 73//73 74//73 149//73 150//73
f 74//74 75//74 148//74 149//74
f 75//75 96//75 147//75 148//75
f 76//76 77//76 82//76 81//76
f 77//77 78//77 83//77 82//77
f 78//78 79//78 84//78 83//78
f 79//79 80//79 85//79 84//79
f 80//80 1//80 6//80 85//80
f 81//81 82//81 88//81 86//81
f 82//82 83//82 91//82 88//82
f 83//83 84//83 92//83 91//83
f 84//84 85//84 94//84 92//84
f 85//85 6//85 11//85 94//85
f 86//86 88//86 89//86 87//86
f 88//87 91//87 90//87 89//87
f 91//88 92//88 93//88 90//88
f 92//89 94//89 95//89 93//89
f 94//90 11//90 12//90 95//90
f 87//91 89//91 97//91 96//91
f 89//92 90//92 98//92 97//92
f 90//93 93//93 99//93 98//93
f 93//94 95//94 100//94 99//94
f 95//95 12//95 21//95 100//95
f 96//96 97//96 141//96 147//96
f 97//97 98//97 130//97 141//97
f 98//98 99//98 129//98 130//98
f 99//99 100//99 123//99 129//99
f 100//100 21//100 117//100 123//100
f 76//101 55//101 101//101 77//101
f 55//102 54//102 102//102 101//102
f 54//103 53//103 103//103 102//103
f 53//104 52//104 104//104 103//104
f 52//105 51//105 30//105 104//105
f 77//106 101//106 105//106 78//106
f 101//107 102//107 108//107 105//107
f 102//108 103//108 109//108 108//108
f 103//109 104//109 111//109 109//109
f 104//110 30//110 29//110 111//110
f 78//111 105//111 106//111 79//111
f 105//112 108//112 107//112 106//112
f 108//113 109//113 110//113 107//113
f 109//114 111//114 112//114 110//114
f 111//115 29//115 28//115 112//115
f 79//116 106//116 113//116 80//116
f 106//117 107//117 114//117 113//117
f 107//118 110//118 115//118 114//118
f 110//119 112//119 116//119 115//119
f 112//120 28//120 27//120 116//120
f 80//121 113//121 2//121 1//121
f 113//122 114//122 3//122 2//122
f 114//123 115//123 4//123 3//123
f 115//124 116//124 5//124 4//124
f 116//125 27//125 26//125 5//125
f 117//126 118//126 124//126 123//126
f 118//127 119//127 125//127 124//127
f 119//128 120//128 126//128 125//128
f 120//129 121//129 127//129 126//129
f 121//130 122//130 128//130 127//130
f 123//131 124//131 131//131 129//131
f 124//132 125//132 134//132 131//132
f 125//133 126//133 135//133 134//133
f 126//134 127//134 137//134 135//134
f 127//135 128//135 139//135 137//135
f 129//136 131//136 132//136 130//136
f 131//137 134//137 133//137 132//137
f 134//138 135//138 136//138 133//138
f 135//139 137//139 138//139 136//139
f 137//140 139//140 140//140 138//140
f 130//141 132//141 142//141 141//141
f 132//142 133//142 143//142 142//142
f 133//143 136//143 144//143 143//143
f 136//144 138//144 145//144 144//144
f 138//145 140//145 146//145 145//145
f 141//146 142//146 148//146 147//146
f 142//147 143//147 149//147 148//147
f 143//148 144//148 150//148 149//148
f 144//149 145//149 151//149 150//149
f 145//150 146//150 152//150 151//150
