# Blender v2.81 (sub 16) OBJ File: ''
# www.blender.org
mtllib test.mtl
o Cube
v 1.000000 1.000000 -1.000000
v 1.000000 -1.000000 -1.000000
v 1.000000 1.000000 1.000000
v 1.000000 -1.000000 1.000000
v -1.000000 1.000000 -1.000000
v -1.000000 -1.000000 -1.000000
v -1.000000 1.000000 1.000000
v -1.000000 -1.000000 1.000000
v 0.297473 0.850472 0.171746
v 0.171746 0.850472 0.297473
v -0.000000 0.850472 0.343493
v -0.171746 0.850472 0.297473
v -0.297473 0.850472 0.171746
v -0.343493 0.850472 0.000000
v -0.297473 0.850472 -0.171746
v -0.171746 0.850472 -0.297473
v 0.000000 0.850472 -0.343493
v 0.343493 0.850472 0.000000
v 0.171747 0.850472 -0.297473
v 0.297473 0.850472 -0.171746
v 0.000000 1.584637 -0.465877
v -0.232938 1.584637 -0.403461
v -0.403461 1.584637 -0.232938
v -0.465877 1.584637 0.000000
v -0.403461 1.584637 0.232938
v -0.232938 1.584637 0.403461
v -0.000000 1.584637 0.465877
v 0.232938 1.584637 0.403461
v 0.403461 1.584637 0.232939
v 0.465877 1.584637 0.000000
v 0.403461 1.584637 -0.232938
v 0.232939 1.584637 -0.403461
v -0.000000 2.065266 -0.624023
v -0.312012 2.065266 -0.540420
v -0.540420 2.065266 -0.312012
v -0.624023 2.065266 0.000000
v -0.540420 2.065266 0.312012
v -0.312012 2.065266 0.540420
v -0.000000 2.065266 0.624023
v 0.312012 2.065266 0.540420
v 0.540420 2.065266 0.312012
v 0.624023 2.065266 0.000000
v 0.540420 2.065266 -0.312011
v 0.312012 2.065266 -0.540420
v -0.000000 2.326610 -0.624023
v -0.312012 2.326610 -0.540420
v -0.540420 2.326610 -0.312012
v -0.624023 2.326610 0.000000
v -0.540420 2.326610 0.312012
v -0.312012 2.326610 0.540420
v -0.000000 2.326610 0.624023
v 0.312012 2.326610 0.540420
v 0.540420 2.326610 0.312012
v 0.624023 2.326610 0.000000
v 0.540420 2.326610 -0.312011
v 0.312012 2.326610 -0.540420
v -0.000000 2.584846 -0.509427
v -0.254713 2.584846 -0.441176
v -0.441177 2.584846 -0.254713
v -0.509427 2.584846 0.000000
v -0.441177 2.584846 0.254713
v -0.254713 2.584846 0.441177
v -0.000000 2.584846 0.509427
v 0.254713 2.584846 0.441177
v 0.441176 2.584846 0.254714
v 0.509427 2.584846 0.000000
v 0.441177 2.584846 -0.254713
v 0.254714 2.584846 -0.441176
v -0.000000 2.710686 -0.301779
v -0.150889 2.710686 -0.261348
v -0.261348 2.710686 -0.150889
v -0.301779 2.710686 0.000000
v -0.261348 2.710686 0.150890
v -0.150889 2.710686 0.261348
v -0.000000 2.710686 0.301779
v 0.150889 2.710686 0.261348
v 0.261348 2.710686 0.150890
v 0.301779 2.710686 0.000000
v 0.261348 2.710686 -0.150889
v 0.150890 2.710686 -0.261348
v -0.000000 2.759001 0.000000
vt 0.625000 0.750000
vt 0.375000 1.000000
vt 0.375000 0.750000
vt 0.625000 0.000000
vt 0.375000 0.250000
vt 0.375000 0.000000
vt 1.000000 1.000000
vt 0.000000 0.000000
vt 1.000000 0.000000
vt 0.625000 0.250000
vt 0.375000 0.500000
vt 0.625000 1.000000
vt 0.000000 1.000000
vt 0.625000 0.500000
vt 0.000000 0.000000
vt 0.000000 0.000000
vt 0.000000 0.000000
vt 0.000000 0.000000
vt 0.000000 0.000000
vt 0.000000 0.000000
vt 0.000000 0.000000
vt 0.000000 0.000000
vt 0.000000 0.000000
vt 0.000000 0.000000
vt 0.000000 0.000000
vt 0.000000 0.000000
vt 0.000000 0.000000
vt 0.000000 0.000000
vt 0.000000 0.000000
vt 0.000000 0.000000
vt 0.000000 0.000000
vt 0.000000 0.000000
vt 0.000000 0.000000
vt 0.000000 0.000000
vt 0.000000 0.000000
vt 0.000000 0.000000
vt 0.000000 0.000000
vt 0.000000 0.000000
vt 0.000000 0.000000
vt 0.000000 0.000000
vt 0.000000 0.000000
vt 0.000000 0.000000
vt 0.000000 0.000000
vt 0.000000 0.000000
vt 0.000000 0.000000
vt 0.000000 0.000000
vt 0.000000 0.000000
vt 0.000000 0.000000
vt 0.000000 0.000000
vt 0.000000 0.000000
vt 0.000000 0.000000
vt 0.000000 0.000000
vt 0.000000 0.000000
vt 0.000000 0.000000
vt 0.000000 0.000000
vt 0.000000 0.000000
vt 0.000000 0.000000
vt 0.000000 0.000000
vt 0.000000 0.000000
vt 0.000000 0.000000
vt 0.000000 0.000000
vt 0.000000 0.000000
vt 0.000000 0.000000
vt 0.000000 0.000000
vt 0.000000 0.000000
vt 0.000000 0.000000
vt 0.000000 0.000000
vt 0.000000 0.000000
vt 0.000000 0.000000
vt 0.000000 0.000000
vt 0.000000 0.000000
vt 0.000000 0.000000
vt 0.000000 0.000000
vt 0.000000 0.000000
vt 0.000000 0.000000
vt 0.000000 0.000000
vt 0.000000 0.000000
vt 0.000000 0.000000
vt 0.000000 0.000000
vt 0.000000 0.000000
vt 0.000000 0.000000
vt 0.000000 0.000000
vt 0.000000 0.000000
vt 0.000000 0.000000
vt 0.000000 0.000000
vt 0.000000 0.000000
vt 0.000000 0.000000
vn 0.0000 0.0000 1.0000
vn -1.0000 0.0000 0.0000
vn 1.0000 0.0000 0.0000
vn 0.0000 0.0000 -1.0000
vn 0.4851 -0.2421 0.8402
vn 0.0000 -0.2421 0.9702
vn 0.0000 -0.1644 0.9864
vn -0.4851 -0.2421 0.8402
vn -0.8402 -0.2421 0.4851
vn -0.8542 -0.1644 0.4932
vn 0.9702 -0.2421 0.0000
vn 0.8402 -0.2421 0.4851
vn 0.8542 -0.1644 0.4932
vn -0.4851 -0.2421 -0.8402
vn 0.0000 -0.2421 -0.9702
vn 0.0000 -0.1644 -0.9864
vn 0.4932 -0.1644 0.8542
vn -0.4932 -0.1644 0.8542
vn 0.8542 -0.1644 -0.4932
vn 0.8402 -0.2421 -0.4851
vn 0.9864 -0.1644 0.0000
vn -0.8542 -0.1644 -0.4932
vn -0.8402 -0.2421 -0.4851
vn -0.4932 -0.1644 -0.8542
vn -0.9702 -0.2421 0.0000
vn -0.9864 -0.1644 0.0000
vn 0.4932 -0.1644 -0.8542
vn 0.4851 -0.2421 -0.8402
vn -0.4940 -0.1543 -0.8556
vn 0.8556 -0.1543 0.4940
vn -0.4940 -0.1543 0.8556
vn 0.0000 -0.1543 -0.9880
vn -0.8556 -0.1543 -0.4940
vn 0.9880 -0.1543 0.0000
vn 0.0000 -0.1543 0.9880
vn -0.9880 -0.1543 0.0000
vn 0.8556 -0.1543 -0.4940
vn 0.4940 -0.1543 0.8556
vn -0.8556 -0.1543 0.4940
vn 0.4940 -0.1543 -0.8556
vn 0.4898 0.2007 -0.8484
vn -0.4898 0.2007 -0.8484
vn 0.8484 0.2007 0.4898
vn -0.4898 0.2007 0.8484
vn 0.0000 0.2007 -0.9796
vn -0.8484 0.2007 -0.4898
vn 0.9796 0.2007 0.0000
vn 0.0000 0.2007 0.9796
vn -0.9796 0.2007 0.0000
vn 0.8484 0.2007 -0.4898
vn 0.4898 0.2007 0.8484
vn -0.8484 0.2007 0.4898
vn -0.6675 0.6371 0.3854
vn 0.3854 0.6371 -0.6675
vn -0.3854 0.6371 -0.6675
vn 0.6675 0.6371 0.3854
vn -0.3854 0.6371 0.6675
vn 0.0000 0.6371 -0.7707
vn -0.6675 0.6371 -0.3854
vn 0.7707 0.6371 0.0000
vn 0.0000 0.6371 0.7707
vn -0.7707 0.6371 0.0000
vn 0.6675 0.6371 -0.3854
vn 0.3854 0.6371 0.6675
vn -0.1860 0.9282 0.3222
vn 0.0000 0.9282 -0.3721
vn -0.3222 0.9282 -0.1860
vn 0.3721 0.9282 0.0000
vn 0.0000 0.9282 0.3721
vn -0.3721 0.9282 0.0000
vn 0.3222 0.9282 -0.1860
vn 0.1860 0.9282 0.3222
vn -0.3222 0.9282 0.1860
vn 0.1860 0.9282 -0.3222
vn -0.1860 0.9282 -0.3222
vn 0.3222 0.9282 0.1860
vn 0.0000 1.0000 0.0000
usemtl Material
s off
f 3/1/1 8/2/1 4/3/1
f 7/4/2 6/5/2 8/6/2
f 1/7/3 4/8/3 2/9/3
f 5/10/4 2/11/4 6/5/4
f 3/1/1 7/12/1 8/2/1
f 7/4/2 5/10/2 6/5/2
f 1/7/3 3/13/3 4/8/3
f 5/10/4 1/14/4 2/11/4
s 1
f 28/15/5 27/16/6 11/17/7
f 26/18/8 25/19/9 13/20/10
f 30/21/11 29/22/12 9/23/13
f 22/24/14 21/25/15 17/26/16
f 9/23/13 29/22/12 10/27/17
f 12/28/18 26/18/8 13/20/10
f 20/29/19 31/30/20 18/31/21
f 10/27/17 28/15/5 11/17/7
f 15/32/22 23/33/23 16/34/24
f 25/19/9 24/35/25 14/36/26
f 19/37/27 32/38/28 20/29/19
f 23/33/23 22/24/14 16/34/24
f 34/39/29 21/25/15 22/24/14
f 41/40/30 28/15/5 29/22/12
f 38/41/31 25/19/9 26/18/8
f 33/42/32 32/38/28 21/25/15
f 35/43/33 22/24/14 23/33/23
f 30/21/11 42/44/34 29/22/12
f 39/45/35 26/18/8 27/16/6
f 24/35/25 36/46/36 23/33/23
f 31/30/20 43/47/37 30/21/11
f 28/15/5 40/48/38 27/16/6
f 37/49/39 24/35/25 25/19/9
f 44/50/40 31/30/20 32/38/28
f 56/51/41 43/47/37 44/50/40
f 46/52/42 33/42/32 34/39/29
f 53/53/43 40/48/38 41/40/30
f 50/54/44 37/49/39 38/41/31
f 45/55/45 44/50/40 33/42/32
f 47/56/46 34/39/29 35/43/33
f 54/57/47 41/40/30 42/44/34
f 51/58/48 38/41/31 39/45/35
f 48/59/49 35/43/33 36/46/36
f 55/60/50 42/44/34 43/47/37
f 52/61/51 39/45/35 40/48/38
f 49/62/52 36/46/36 37/49/39
f 49/62/52 61/63/53 48/59/49
f 68/64/54 55/60/50 56/51/41
f 58/65/55 45/55/45 46/52/42
f 65/66/56 52/61/51 53/53/43
f 62/67/57 49/62/52 50/54/44
f 57/68/58 56/51/41 45/55/45
f 59/69/59 46/52/42 47/56/46
f 66/70/60 53/53/43 54/57/47
f 63/71/61 50/54/44 51/58/48
f 60/72/62 47/56/46 48/59/49
f 67/73/63 54/57/47 55/60/50
f 64/74/64 51/58/48 52/61/51
f 62/67/57 74/75/65 61/63/53
f 69/76/66 68/64/54 57/68/58
f 71/77/67 58/65/55 59/69/59
f 78/78/68 65/66/56 66/70/60
f 75/79/69 62/67/57 63/71/61
f 72/80/70 59/69/59 60/72/62
f 79/81/71 66/70/60 67/73/63
f 76/82/72 63/71/61 64/74/64
f 61/63/53 73/83/73 60/72/62
f 80/84/74 67/73/63 68/64/54
f 70/85/75 57/68/58 58/65/55
f 65/66/56 77/86/76 64/74/64
f 80/84/74 69/76/66 81/87/77
f 71/77/67 72/80/70 81/87/77
f 74/75/65 75/79/69 81/87/77
f 79/81/71 80/84/74 81/87/77
f 73/83/73 74/75/65 81/87/77
f 77/86/76 78/78/68 81/87/77
f 72/80/70 73/83/73 81/87/77
f 76/82/72 77/86/76 81/87/77
f 70/85/75 71/77/67 81/87/77
f 75/79/69 76/82/72 81/87/77
f 78/78/68 79/81/71 81/87/77
f 69/76/66 70/85/75 81/87/77
f 29/22/12 28/15/5 10/27/17
f 21/25/15 32/38/28 19/37/27
f 13/20/10 25/19/9 14/36/26
f 14/36/26 24/35/25 15/32/22
f 31/30/20 30/21/11 18/31/21
f 16/34/24 22/24/14 17/26/16
f 24/35/25 23/33/23 15/32/22
f 32/38/28 31/30/20 20/29/19
f 17/26/16 21/25/15 19/37/27
f 27/16/6 26/18/8 12/28/18
f 34/39/29 33/42/32 21/25/15
f 41/40/30 40/48/38 28/15/5
f 38/41/31 37/49/39 25/19/9
f 33/42/32 44/50/40 32/38/28
f 35/43/33 34/39/29 22/24/14
f 43/47/37 42/44/34 30/21/11
f 39/45/35 38/41/31 26/18/8
f 73/83/73 72/80/70 60/72/62
f 18/31/21 30/21/11 9/23/13
f 42/44/34 41/40/30 29/22/12
f 37/49/39 36/46/36 24/35/25
f 44/50/40 43/47/37 31/30/20
f 56/51/41 55/60/50 43/47/37
f 46/52/42 45/55/45 33/42/32
f 53/53/43 52/61/51 40/48/38
f 50/54/44 49/62/52 37/49/39
f 45/55/45 56/51/41 44/50/40
f 47/56/46 46/52/42 34/39/29
f 54/57/47 53/53/43 41/40/30
f 51/58/48 50/54/44 38/41/31
f 48/59/49 47/56/46 35/43/33
f 55/60/50 54/57/47 42/44/34
f 52/61/51 51/58/48 39/45/35
f 49/62/52 48/59/49 36/46/36
f 40/48/38 39/45/35 27/16/6
f 68/64/54 67/73/63 55/60/50
f 58/65/55 57/68/58 45/55/45
f 65/66/56 64/74/64 52/61/51
f 62/67/57 61/63/53 49/62/52
f 57/68/58 68/64/54 56/51/41
f 59/69/59 58/65/55 46/52/42
f 66/70/60 65/66/56 53/53/43
f 63/71/61 62/67/57 50/54/44
f 60/72/62 59/69/59 47/56/46
f 67/73/63 66/70/60 54/57/47
f 64/74/64 63/71/61 51/58/48
f 77/86/76 76/82/72 64/74/64
f 69/76/66 80/84/74 68/64/54
f 71/77/67 70/85/75 58/65/55
f 78/78/68 77/86/76 65/66/56
f 75/79/69 74/75/65 62/67/57
f 72/80/70 71/77/67 59/69/59
f 79/81/71 78/78/68 66/70/60
f 76/82/72 75/79/69 63/71/61
f 74/75/65 73/83/73 61/63/53
f 80/84/74 79/81/71 67/73/63
f 70/85/75 69/76/66 57/68/58
f 61/63/53 60/72/62 48/59/49
f 27/16/6 12/28/18 11/17/7
f 36/46/36 35/43/33 23/33/23
